<?xml version="1.0" encoding="utf-8"?>
<!-- Generator: Adobe Illustrator 15.0.0, SVG Export Plug-In . SVG Version: 6.00 Build 0)  -->
<!DOCTYPE svg PUBLIC "-//W3C//DTD SVG 1.1//EN" "http://www.w3.org/Graphics/SVG/1.1/DTD/svg11.dtd">
<svg version="1.1" id="Ebene_1" xmlns="http://www.w3.org/2000/svg" xmlns:xlink="http://www.w3.org/1999/xlink" x="0px" y="0px"
	 width="841.89px" height="595.28px" viewBox="0 0 841.89 595.28" enable-background="new 0 0 841.89 595.28" xml:space="preserve">
<path fill="#E2001A" d="M156.522,153.22c4.391-8.179,7.21-14.578,8.457-19.2c0.092-0.323,0.301-0.439,0.625-0.346
	c0.322,0.092,0.438,0.301,0.346,0.625c-1.341,4.666-4.089,10.906-8.249,18.715c0.6-0.232,1.201-0.416,1.802-0.555
	c0.092-0.369,0.254-0.775,0.485-1.213c0.231-0.439,0.417-0.75,0.555-0.936l0.763-1.109c0.369-0.555,0.577-0.877,0.623-0.971
	c0.185-0.279,0.417-0.322,0.694-0.141c0.276,0.186,0.322,0.417,0.138,0.695c-1.248,1.803-1.965,2.98-2.149,3.533
	c0.923-0.137,1.848-0.205,2.772-0.205c0.093-0.601,0.323-1.226,0.693-1.873l0.901-1.249c0.509-0.737,0.786-1.13,0.833-1.177
	c0.184-0.277,0.416-0.324,0.693-0.139c0.277,0.186,0.322,0.414,0.139,0.693c-0.046,0.092-0.347,0.484-0.901,1.179
	c-0.371,0.463-0.648,0.854-0.832,1.179c-0.278,0.51-0.463,0.971-0.555,1.387c3.234,0.184,6.054,1.016,8.458,2.493
	c2.125,1.343,3.441,2.913,3.951,4.716c0.878-2.312,1.675-4.726,2.392-7.244c0.716-2.52,1.514-5.558,2.392-9.117l1.802-7.416
	c0.092-0.323,0.3-0.439,0.625-0.346c0.322,0.091,0.438,0.301,0.346,0.622c-0.37,1.387-0.994,3.872-1.872,7.454
	c-0.878,3.58-1.688,6.654-2.426,9.219c-0.739,2.565-1.549,5.025-2.426,7.381c-0.232,0.463-0.462,0.973-0.694,1.525
	c-0.138,1.342-0.739,2.682-1.802,4.021c-0.508,1.018-0.901,1.896-1.179,2.634c0.832,0.095,1.409,0.463,1.733,1.11
	c0.323,0.601,0.323,1.292,0,2.08c-0.324,0.738-0.844,1.305-1.559,1.697c-0.717,0.395-1.537,0.381-2.461-0.035
	c-0.046,0-0.117-0.023-0.208-0.07c-3.143,5.639-5.337,9.66-6.585,12.063c0.277,0.138,0.347,0.346,0.208,0.622
	c-0.046,0.095-0.116,0.164-0.208,0.209c0,0.139-0.023,0.254-0.068,0.346c-0.094,0.279-0.302,0.346-0.625,0.209l-0.069,0.07
	c-0.138,0.276-0.346,0.346-0.623,0.207c-0.278-0.141-0.371-0.346-0.278-0.623c-1.896-0.6-4.714-1.109-8.457-1.524
	c-0.232,1.71-0.717,2.934-1.456,3.672c-0.139,0.14-0.347,0.231-0.625,0.278c0.092,0.093,0.162,0.207,0.209,0.346
	c0.092,0.371,0.022,0.672-0.209,0.901c-0.184,0.186-0.439,0.323-0.762,0.417c-0.555,0.093-1.203,0.068-1.941-0.07
	c-0.786-0.137-1.433-0.369-1.941-0.692c-0.692-0.46-0.97-1.016-0.832-1.665c0.139-0.646,0.578-0.994,1.317-1.039
	c0.461-0.045,1.063,0.045,1.803,0.277l0.416,0.068l0.138-0.137c0.323-0.186,0.554-0.14,0.693,0.137
	c0.046,0.095,0.115,0.209,0.208,0.348c0.092,0,0.162,0.025,0.208,0.067c0.23,0.048,0.416,0.072,0.554,0.072h0.069
	c0.554-0.601,0.97-1.641,1.248-3.12l-0.763-0.07c-2.034-0.184-3.513-0.347-4.436-0.485l-0.347,0.485l-0.832,1.387l-0.138,0.277
	c0,0.093-0.047,0.186-0.139,0.277c-0.509,0.693-1.202,0.949-2.08,0.762c-0.693-0.184-1.386-0.601-2.079-1.246
	c-0.648-0.602-1.109-1.294-1.387-2.082c-0.277-0.646-0.347-1.246-0.208-1.801c0-0.092,0.023-0.207,0.069-0.346
	c0.046-0.093,0.114-0.185,0.208-0.278c0.184-0.139,0.416-0.208,0.693-0.208c0-0.322,0.161-0.484,0.485-0.484h0.139
	c2.634-4.391,4.505-7.971,5.615-10.745c-0.417-0.229-0.671-0.577-0.763-1.04c-0.046-0.507,0.115-1.039,0.485-1.595
	c0.416-0.599,0.97-1.041,1.664-1.317c0.092-0.415,0.161-0.807,0.208-1.178c-0.139-0.924-0.116-1.871,0.07-2.842
	c0.508-2.496,2.125-4.877,4.852-7.142c0-0.228,0.069-0.392,0.208-0.485c0.369-0.23,0.738-0.438,1.108-0.623
	C156.453,153.405,156.476,153.314,156.522,153.22z M142.312,182.336c0,0.277,0.069,0.579,0.208,0.9
	c0.231,0.649,0.625,1.227,1.178,1.734c0.555,0.51,1.086,0.832,1.595,0.971c0.23,0.045,0.438,0.045,0.624,0
	c-0.093-0.139-0.163-0.37-0.208-0.694v-0.276v-0.348c-0.046-0.182-0.069-0.322-0.069-0.416c-0.232-0.415-0.51-0.807-0.832-1.178
	C143.929,182.845,143.097,182.613,142.312,182.336z M154.443,180.327c0.185-0.648,0.416-1.155,0.693-1.526
	c0.23-0.277,0.461-0.438,0.693-0.484c0.277-0.047,0.53,0.046,0.762,0.275c0.277,0.232,0.531,0.695,0.763,1.387
	c0.091,0.186,0.184,0.416,0.277,0.694c2.034-1.619,3.442-3.745,4.229-6.378c-3.05,0.139-5.153,0.068-6.309-0.209
	c-1.386-0.276-2.45-0.832-3.188-1.663c-0.693-0.739-1.11-1.708-1.248-2.911c-0.047,0.045-0.116,0.094-0.208,0.139
	c-0.462,0.324-0.925,0.462-1.386,0.416c-1.11,2.728-2.912,6.193-5.408,10.398c1.848,0.048,3.651,0.162,5.408,0.346
	c1.386-1.246,2.842-1.499,4.367-0.762C154.072,180.095,154.258,180.188,154.443,180.327z M148.135,182.682l0.624-0.971
	c-1.48-0.137-2.958-0.23-4.436-0.275c0.368,0.184,0.692,0.439,0.97,0.76C146.125,182.381,147.071,182.545,148.135,182.682z
	 M147.511,183.582c-0.416-0.09-0.832-0.16-1.248-0.206c0.092,0.139,0.162,0.278,0.209,0.416c0.091,0.186,0.161,0.439,0.208,0.764
	v0.415l0.762-1.316L147.511,183.582z M151.254,188.089c-0.093,0-0.277-0.044-0.554-0.139l-0.625-0.207
	c-0.692-0.14-1.178-0.208-1.455-0.208c-0.278,0.048-0.44,0.15-0.485,0.312c-0.047,0.162,0.091,0.358,0.416,0.588
	c0.416,0.277,0.946,0.463,1.594,0.555c0.601,0.14,1.109,0.164,1.525,0.07c0.091,0,0.161-0.023,0.208-0.07
	c-0.047-0.182-0.185-0.416-0.417-0.691L151.254,188.089z M148.967,168.818c0.23-0.553,0.416-1.109,0.555-1.664
	c-0.139,0.186-0.278,0.349-0.417,0.486c-0.231,0.369-0.324,0.67-0.277,0.9L148.967,168.818z M153.958,183.307l0.069-0.832
	c-1.34-0.279-2.727-0.484-4.159-0.623c-0.186,0.229-0.416,0.554-0.693,0.969l3.951,0.416L153.958,183.307z M149.937,169.025
	c0.138-0.045,0.3-0.114,0.485-0.207c0.37-0.229,0.693-0.577,0.97-1.039c0.045-0.045,0.069-0.115,0.069-0.209
	c-0.231-0.367-0.439-0.74-0.623-1.108h-0.069C150.537,167.293,150.26,168.15,149.937,169.025z M154.166,181.504l0.069-0.209
	c-0.277-0.138-0.532-0.276-0.763-0.415c-0.925-0.415-1.779-0.367-2.564,0.139C152.017,181.157,153.102,181.318,154.166,181.504z
	 M160.335,153.291c-0.046,0.277-0.069,0.531-0.069,0.763c0,0.325-0.162,0.485-0.485,0.485s-0.484-0.16-0.484-0.485v-0.485
	c-0.74,0.186-1.434,0.415-2.08,0.692c-3.466,2.405-5.454,4.971-5.962,7.694c-0.138,0.741-0.163,1.48-0.069,2.221
	c0.045,0.09,0.069,0.207,0.069,0.346v0.068c0.046,0.324,0.139,0.648,0.278,0.97c0.646,0.14,1.016,0.51,1.108,1.109
	c0.046,0.233,0.023,0.485-0.069,0.763c0.278,0.324,0.577,0.648,0.901,0.973c1.248,1.152,2.819,1.963,4.714,2.426
	c1.895,0.462,4.043,0.416,6.447-0.14c2.403-0.556,4.714-1.665,6.933-3.327c1.108-0.785,2.01-1.617,2.703-2.496l0.347-0.691
	l1.317-2.982c0.046-0.23,0.046-0.439,0-0.623c-0.093-1.942-1.317-3.65-3.674-5.129c-2.218-1.388-4.83-2.174-7.833-2.359v0.07
	c0.045,0.277-0.081,0.449-0.381,0.521c-0.301,0.067-0.497-0.058-0.589-0.382v-0.209
	C162.346,153.082,161.306,153.152,160.335,153.291z M162.068,173.324c0.092-0.416,0.162-0.83,0.208-1.247
	c-3.882,0.276-7.025-0.717-9.427-2.981c-0.278-0.23-0.51-0.461-0.693-0.691c-0.047,0.045-0.094,0.114-0.139,0.205
	c0,1.343,0.347,2.404,1.04,3.189c0.6,0.648,1.501,1.109,2.704,1.387C156.776,173.371,158.879,173.418,162.068,173.324z
	 M157.216,183.722c-0.046-0.044-0.069-0.091-0.069-0.14v-0.206c-0.047-0.046-0.094-0.069-0.14-0.069l-0.346-0.277
	c-0.555-0.139-1.11-0.253-1.664-0.348l-0.14,0.764C155.736,183.539,156.522,183.631,157.216,183.722z M155.968,179.354
	c-0.278,0.373-0.509,0.881-0.694,1.526l0.486,0.349l0.554,0.346l0.416-0.279c-0.093-0.367-0.186-0.715-0.278-1.039
	C156.314,179.795,156.152,179.493,155.968,179.354z M157.839,158.697l0.416,0.625c0.185,0.276,0.139,0.51-0.139,0.691
	c-0.277,0.186-0.509,0.141-0.693-0.139l-0.416-0.623c-0.185-0.277-0.138-0.508,0.14-0.693
	C157.423,158.376,157.655,158.422,157.839,158.697z M157.979,182.405c2.125,0.554,4.112,1.249,5.961,2.079
	c1.248-2.449,3.397-6.377,6.447-11.785c-1.109,0.555-2.126,0.973-3.05,1.249c-1.387,0.415-2.612,0.485-3.674,0.207
	c-0.093,0.093-0.208,0.14-0.347,0.14h-0.484c-0.787,3.096-2.451,5.568-4.992,7.416L157.979,182.405z M160.959,184.346
	c-0.925-0.322-1.873-0.624-2.843-0.9c0,0.137-0.046,0.255-0.138,0.347C159.087,183.978,160.081,184.162,160.959,184.346z
	 M162.624,159.875c0.322,0,0.484,0.164,0.484,0.486c0,0.324-0.163,0.486-0.484,0.486c-0.325,0-0.487-0.162-0.487-0.486
	C162.137,160.039,162.299,159.875,162.624,159.875z M163.108,172.979c1.062,0.461,2.38,0.461,3.952,0
	c0.97-0.279,2.149-0.763,3.535-1.457c-0.047-0.461,0.045-0.992,0.277-1.592c0.184-0.418,0.416-0.855,0.693-1.32
	c-2.681,1.849-5.454,2.959-8.319,3.328C163.247,172.309,163.2,172.656,163.108,172.979z M170.109,186.01
	c-0.555,1.664-1.664,3.166-3.328,4.506c-0.231,0.186-0.45,0.151-0.658-0.104s-0.174-0.496,0.104-0.727
	c1.479-1.156,2.449-2.474,2.912-3.953c0.092-0.324,0.3-0.438,0.623-0.347C170.085,185.48,170.202,185.688,170.109,186.01z
	 M173.159,186.703c-0.739,2.451-2.218,4.53-4.436,6.238c-0.232,0.186-0.451,0.152-0.659-0.104c-0.208-0.254-0.173-0.496,0.104-0.727
	c1.986-1.525,3.327-3.42,4.021-5.688c0.092-0.32,0.3-0.438,0.625-0.346C173.136,186.172,173.252,186.381,173.159,186.703z
	 M173.575,169.025l-0.069,0.141c-0.139,0.324-0.359,0.426-0.658,0.311c-0.302-0.115-0.405-0.311-0.312-0.59
	c-0.324,0.463-0.554,0.88-0.693,1.248l0.208-0.346c0.138-0.322,0.357-0.404,0.658-0.242c0.301,0.163,0.358,0.383,0.174,0.658
	l-0.971,1.803c0.045,0,0.093,0.023,0.14,0.069c0.6,0.231,1.143,0.22,1.629-0.036c0.485-0.253,0.842-0.658,1.074-1.211
	c0.232-0.51,0.254-0.925,0.069-1.249c-0.185-0.37-0.578-0.556-1.178-0.556H173.575z M173.506,192.111
	c1.016,1.154,2.934,1.502,5.753,1.04c0.97-0.187,2.125-0.487,3.466-0.902c0.322-0.092,0.82-0.242,1.49-0.452
	c0.67-0.207,1.145-0.356,1.422-0.449c0.322-0.092,0.531,0.024,0.624,0.348c0.092,0.322-0.024,0.531-0.347,0.622
	c-0.276,0.046-0.751,0.186-1.421,0.417c-0.67,0.23-1.167,0.393-1.491,0.484c-1.386,0.416-2.588,0.695-3.604,0.834
	c-3.144,0.553-5.338,0.137-6.585-1.25c-0.232-0.275-0.22-0.52,0.035-0.727C173.101,191.868,173.321,191.879,173.506,192.111z"/>
<path fill="#009EE0" d="M251.542,101.225h5.671c0.328,0,0.492,0.161,0.492,0.488c0,0.325-0.164,0.489-0.492,0.489h-3.291
	c-0.094,0.188-0.233,0.282-0.42,0.282c-1.354-0.046-4.389-0.07-9.104-0.07c-0.14,0-0.257-0.047-0.351-0.141
	c-2.988-0.095-5.252,0.022-6.792,0.351c-0.281,0.046-0.468-0.094-0.561-0.422c0-0.092,0.023-0.186,0.071-0.279
	c-1.681,0-3.152,0.046-4.413,0.141c-0.14,0-0.256-0.026-0.35-0.069c-0.28,0-0.945-0.014-1.996-0.036
	c-1.051-0.026-1.856-0.036-2.416-0.036c-1.261,0.046-2.661,0.093-4.202,0.141h-0.28h-0.07h-1.471
	c-0.467,0.047-0.887,0.071-1.261,0.071c-0.094,0.092-0.21,0.139-0.35,0.139h-1.541h-0.14c-0.048,0-0.094-0.024-0.14-0.071
	c-0.047,0-0.117-0.024-0.209-0.067c-0.095-0.14-0.141-0.282-0.141-0.422c-1.635-0.093-2.941-0.139-3.922-0.139
	c-0.094,0.093-0.187,0.139-0.279,0.139c-1.028,0.094-2.219,0.14-3.573,0.14l-0.14,0.07h-0.209h-3.152
	c-2.941,0.046-5.252,0.188-6.933,0.418c-0.328,0.048-0.514-0.092-0.561-0.418c-0.046-0.328,0.093-0.515,0.421-0.56
	c1.727-0.236,4.084-0.375,7.072-0.42h0.42c-0.14-0.374-0.187-0.701-0.14-0.98c0.233-0.887,0.374-2.124,0.42-3.712
	c0.046-1.96,0.116-3.243,0.21-3.853c-0.887,0.046-1.728,0.095-2.521,0.143c-0.094,0.092-0.209,0.139-0.35,0.139
	c-0.327,0-0.491-0.163-0.491-0.491v-0.07v-0.07c0-1.165,0.023-2.075,0.071-2.73c0-0.14,0.093-0.255,0.28-0.352
	c0.093-0.185,0.233-0.278,0.42-0.278h0.981c-0.048-0.093-0.071-0.211-0.071-0.352c-0.047-0.605,0-1.026,0.141-1.26
	c0.046-0.14,0.163-0.257,0.35-0.349c0.093-0.048,0.209-0.094,0.35-0.14c0.281-0.094,0.63-0.188,1.051-0.281l0.351-0.071v-0.069
	c0-0.981,0.42-1.963,1.26-2.941c1.073-1.261,1.656-1.961,1.751-2.102c0.14-0.233,0.373-1.05,0.699-2.451
	c0.186-0.745,0.281-1.189,0.281-1.331c-0.794-0.325-1.191-0.979-1.191-1.96c0-0.793,0.234-1.541,0.701-2.24
	c0.326-0.466,0.723-0.77,1.19-0.91l-1.891-4.973c-0.094-0.282-0.583-1.985-1.47-5.113c-0.607-2.052-1.26-3.616-1.96-4.691
	c-0.187-0.28-0.141-0.514,0.139-0.701c0.281-0.185,0.514-0.14,0.701,0.14c0.747,1.121,1.423,2.778,2.031,4.974
	c0.886,3.08,1.4,4.786,1.54,5.109l1.961,5.323c0.093,0.094,0.14,0.235,0.14,0.422l0.211,0.488c0.186-0.14,0.42-0.257,0.699-0.349
	c0.327-0.047,0.526,0.082,0.596,0.386c0.07,0.303-0.035,0.501-0.315,0.593c0.046,0.096,0.07,0.188,0.07,0.282
	c0,0.466-0.046,0.84-0.14,1.121l-0.14,0.278l0.21,0.422h0.07c0.281-0.14,0.49-0.07,0.631,0.21c0.139,0.278,0.069,0.489-0.211,0.629
	l-0.209,0.141l0.63,1.68c0.046,0.141,0.115,0.444,0.21,0.91c0.14,0.655,0.232,1.075,0.279,1.262
	c0.141,0.467,0.257,0.839,0.351,1.119c0.14,0.329,0.257,0.538,0.351,0.63l0.281,0.071c0.232,0.048,0.49,0.07,0.769,0.07
	c0.281,0,0.561-0.022,0.841-0.07c0.186-0.046,0.303-0.094,0.35-0.14c0.046-0.047,0.07-0.115,0.07-0.211
	c0-0.185-0.07-0.442-0.209-0.77c-0.094-0.279-0.235-0.604-0.42-0.979c-0.235-0.375-0.351-0.607-0.351-0.701
	c-2.755-6.629-4.481-11.04-5.182-13.234c-0.14-0.514-0.328-1.262-0.56-2.241c-0.281-1.447-0.445-2.264-0.49-2.45
	c-0.468-2.009-1.004-3.434-1.611-4.273c-0.141-0.187-0.257-0.279-0.351-0.279c-0.046,0-0.139,0.024-0.28,0.067
	c-0.279,0.097-0.443,0.165-0.49,0.211c-0.327,0.095-0.537-0.023-0.629-0.351c-0.095-0.325,0.023-0.535,0.35-0.631
	c0.045,0,0.186-0.044,0.42-0.14c0.232-0.092,0.419-0.14,0.56-0.14c0.466-0.043,0.886,0.188,1.26,0.701
	c0.653,0.934,1.213,2.451,1.681,4.553c0.046,0.232,0.232,1.073,0.56,2.519c0.187,0.936,0.374,1.657,0.561,2.172
	c0.653,2.195,2.334,6.56,5.042,13.096l0.35,0.7c0.232,0.421,0.396,0.747,0.49,0.98c0.186,0.468,0.28,0.84,0.28,1.122
	c0,0.514-0.165,0.886-0.491,1.118c-0.187,0.097-0.444,0.166-0.77,0.211c-0.28,0.094-0.607,0.14-0.981,0.14
	c-0.326,0-0.629-0.024-0.91-0.07c-0.374-0.046-0.654-0.165-0.841-0.35c-0.186-0.187-0.374-0.515-0.56-0.982
	c-0.139-0.325-0.257-0.746-0.351-1.26c-0.046-0.186-0.139-0.583-0.279-1.19l-0.071-0.14c0,1.216-0.07,2.476-0.21,3.781
	c-0.095,0.563-0.164,1.03-0.211,1.401c-0.094,0.328-0.163,0.585-0.209,0.771h0.42c0.14,0.047,0.256,0.117,0.35,0.211
	c0.232,0.139,0.373,0.418,0.421,0.839c0.045,0.234,0.069,0.561,0.069,0.981v0.91h0.91c-0.094-0.515,0-0.91,0.28-1.19
	c0.093-0.095,0.233-0.164,0.421-0.212c0.14-0.046,0.325-0.092,0.56-0.139l1.611-0.212c1.212-0.185,2.776-0.371,4.691-0.56
	c0.746-0.092,1.517-0.163,2.311-0.211l0.351-0.278c0.933-0.747,1.681-1.168,2.241-1.261c1.166-0.233,2.474-0.233,3.921,0
	l3.011,0.489c0.98,0.047,1.821-0.185,2.521-0.7c0.933-0.607,1.89-1.751,2.871-3.432c-4.249,1.868-8.708,2.126-13.376,0.77
	c-3.175-0.933-4.856-2.916-5.042-5.953c-0.095-2.519,0.864-5.367,2.871-8.541c1.868-2.989,4.132-5.416,6.792-7.284
	c0.374-0.28,0.771-0.536,1.191-0.771l-0.28-0.56c-0.607-1.493-1.051-3.245-1.331-5.253c-0.046-0.324,0.093-0.511,0.42-0.56
	c0.327-0.046,0.514,0.094,0.561,0.42c0.28,1.915,0.7,3.596,1.26,5.042l0.21,0.421c0.841-0.421,1.657-0.724,2.452-0.91
	c-0.515-2.427-0.584-4.413-0.21-5.952c0.092-0.327,0.303-0.444,0.63-0.35c0.326,0.092,0.444,0.304,0.349,0.628
	c-0.374,1.355-0.303,3.2,0.211,5.531c0.746-0.092,1.423-0.043,2.031,0.142l0.14,0.14c4.948,0.046,8.368,1.434,10.259,4.167
	c1.891,2.731,1.972,6.012,0.245,9.839c-1.587,3.455-4.155,6.185-7.704,8.194c1.587,1.26,2.732,2.799,3.432,4.621
	c0.701,1.82,0.84,3.711,0.42,5.671c-0.094,0.326-0.292,0.457-0.595,0.385c-0.304-0.069-0.432-0.245-0.385-0.525
	c0.654-3.034-0.07-5.742-2.171-8.123c-0.42,2.335-1.145,4.063-2.171,5.184c-0.047,0.093-0.117,0.186-0.21,0.28
	c0.046,0.046,0.07,0.092,0.07,0.14c0,0.046,0.023,0.163,0.069,0.349c0.046,0.188,0.093,0.431,0.14,0.734
	c0.046,0.306,0.093,0.574,0.14,0.806c0.045,0.514,0.093,0.91,0.141,1.19v0.209c0.746-0.092,1.54-0.068,2.38,0.071
	c0.326,0.047,0.466,0.234,0.42,0.561c-0.047,0.326-0.233,0.466-0.56,0.418c-0.979-0.184-1.867-0.184-2.661,0
	c-0.14,0.096-0.327,0.142-0.56,0.142c-0.515,0.186-0.958,0.445-1.331,0.769l-0.35,0.352c0.046,0,0.093-0.024,0.14-0.07
	c0.374-0.093,1.19-0.21,2.451-0.35c0.374-0.047,0.968-0.105,1.786-0.176c0.816-0.07,1.411-0.127,1.785-0.174
	c1.446-0.141,2.521-0.281,3.222-0.421c0.465-0.093,0.816-0.186,1.05-0.279l0.14-0.142c0.093-0.372,0.116-1.259,0.07-2.662
	c0-0.418-0.012-1.13-0.035-2.135c-0.023-1.003-0.059-1.784-0.104-2.345c-0.047-1.866-0.023-3.267,0.07-4.202
	c0.046-0.654,0.141-1.167,0.281-1.541c0.14-0.513,0.396-0.839,0.77-0.98c0.7-0.185,1.284-0.116,1.75,0.21
	c0.42,0.279,0.746,0.77,0.98,1.471c0.326,1.027,0.42,2.544,0.28,4.553c-0.141,1.586-0.42,3.266-0.84,5.041
	c-0.375,1.585-0.724,2.66-1.051,3.221c-0.093,0.185-0.257,0.349-0.49,0.488c0,0.329-0.024,0.983-0.07,1.963
	c-0.047,0.98-0.07,1.75-0.07,2.31c0,0.234-0.116,0.397-0.35,0.491c-0.094,1.075-0.14,2.032-0.14,2.871v0.561v0.139v0.07h-0.981
	v-0.07v-0.139v-0.561v-1.749c0-2.849,0.023-4.646,0.071-5.394c-0.794,0.188-1.798,0.352-3.011,0.491
	c-1.261,0.139-2.591,0.233-3.992,0.279c-0.094,0.747-0.164,1.542-0.21,2.381v1.05c-0.046,1.494-0.094,2.662-0.14,3.502v0.07h1.61
	c0.233,0,0.373,0.092,0.42,0.279c1.026,0.047,1.821,0.071,2.381,0.071c0.093,0,0.164,0.022,0.21,0.068h3.712
	C251.216,101.292,251.355,101.225,251.542,101.225z M225.772,90.788c1.446-0.14,2.823-0.303,4.132-0.491
	c-0.234-0.184-0.28-0.395-0.141-0.63l0.07-0.209c-0.234,0.14-0.444,0.116-0.629-0.071c-2.521,0-6.303,0.047-11.345,0.14
	c-0.095,0.094-0.188,0.165-0.28,0.21c-0.235,0.047-0.42-0.024-0.561-0.21l-1.471,0.071c-0.093,0.047-0.186,0.069-0.279,0.069
	c-0.095,0-0.188-0.021-0.281-0.069c-3.268,0.047-6,0.069-8.193,0.069c-0.095,0.14-0.21,0.21-0.351,0.21
	c-0.188,0-0.35-0.07-0.49-0.21h-0.84c-0.047,0.514-0.07,1.145-0.07,1.892c1.914-0.141,5.101-0.248,9.559-0.315
	c4.458-0.072,7.854-0.199,10.189-0.385v-0.211c0-0.325,0.163-0.491,0.49-0.491c0.326,0,0.49,0.166,0.49,0.491V90.788z
	 M206.725,87.567c-0.048,0.186-0.048,0.42,0,0.701c0,0.14,0.023,0.28,0.07,0.42c2.147,0,4.808-0.025,7.982-0.073l0.071-0.139v-0.839
	v-0.843c-0.047-0.044-0.071-0.092-0.071-0.139v-0.069h-0.279c-0.235-0.048-0.561-0.048-0.981,0h-0.141l-0.139,0.069
	c-0.095,0.047-0.304,0.139-0.63,0.28c-0.234,0.094-0.421,0.163-0.561,0.209c-0.28,0.189-0.49,0.117-0.629-0.209
	c-0.048-0.046-0.071-0.117-0.071-0.209l-0.7,0.139c-1.121,0.14-2.055,0.279-2.802,0.419c-0.42,0.096-0.747,0.164-0.979,0.212
	C206.817,87.544,206.771,87.567,206.725,87.567z M223.391,101.082c0.373-0.046,0.77-0.069,1.19-0.069c0-0.048-0.024-0.094-0.07-0.14
	c-0.047-0.515-0.023-1.376,0.07-2.59c0.046-1.027,0.116-2.009,0.21-2.942v-3.503c-1.541,0.14-3.164,0.236-4.868,0.282
	c-1.704,0.047-3.653,0.083-5.847,0.104c-2.196,0.024-3.806,0.06-4.832,0.105v0.069c0,0.095-0.095,1.66-0.28,4.694
	c-0.047,1.119-0.117,1.983-0.21,2.59c-0.093,0.42-0.164,0.771-0.209,1.05c-0.047,0.092-0.07,0.163-0.07,0.21h1.471
	c1.866-0.233,3.314-0.351,4.342-0.351c1.026,0,2.509,0.059,4.447,0.174c1.937,0.116,3.349,0.176,4.236,0.176
	c0.141,0,0.257,0.046,0.351,0.139H223.391z M212.957,77.483c-0.046,0.233-0.164,0.701-0.35,1.4c-0.328,1.497-0.584,2.381-0.77,2.662
	c-0.094,0.234-0.725,1.004-1.891,2.31c-0.655,0.796-0.98,1.542-0.98,2.243c0.513-0.093,1.026-0.165,1.54-0.212
	c0.981-0.139,1.868-0.232,2.662-0.279c0.232-0.141,0.396-0.281,0.49-0.421c0.046-0.046,0.093-0.21,0.14-0.489
	c0.046-0.373,0.116-0.842,0.21-1.402c0.14-1.26,0.209-2.473,0.209-3.641c-0.047-0.98-0.14-1.725-0.28-2.24
	C213.611,77.46,213.283,77.483,212.957,77.483z M213.376,74.261l-0.42-1.119c-0.234,0.094-0.444,0.279-0.629,0.559
	c-0.375,0.515-0.561,1.075-0.561,1.681c0,0.515,0.187,0.866,0.561,1.049c0-0.043,0.023-0.092,0.07-0.139
	c0.42-0.419,0.793-0.631,1.12-0.631l-0.141-0.279C213.283,75.011,213.283,74.634,213.376,74.261z M217.718,88.056v0.352v0.14
	c5.323-0.094,9.291-0.14,11.906-0.14l0.84-0.561c0.141-0.42,0.233-0.747,0.281-0.98v-0.139h-0.281c-0.374,0-0.887,0.023-1.541,0.067
	c-0.56,0.047-1.215,0.119-1.96,0.212c-0.608,0.468-1.098,0.771-1.471,0.91c-0.28,0.139-0.49,0.07-0.629-0.212
	c-0.095-0.185-0.07-0.371,0.069-0.56l-0.56,0.072c-1.916,0.186-3.457,0.349-4.622,0.488c-0.655,0.096-1.168,0.188-1.542,0.282
	C217.975,88.033,217.812,88.056,217.718,88.056z M238.518,58.715c0,0.282-0.118,0.445-0.351,0.488
	c-0.327,0.048-0.538-0.067-0.63-0.349v-0.209c-0.748,0.14-1.518,0.419-2.311,0.84c0.701,1.167,1.47,2.008,2.311,2.521
	c0.326,0.139,0.408,0.361,0.245,0.664c-0.164,0.303-0.385,0.362-0.666,0.176c-1.074-0.561-1.984-1.54-2.73-2.939
	c-0.374,0.232-0.725,0.467-1.05,0.699c-2.569,1.82-4.763,4.156-6.583,7.002c-1.867,2.989-2.754,5.65-2.661,7.985
	c0.139,2.566,1.587,4.247,4.342,5.042c3.407,1.027,6.57,1.156,9.488,0.385c2.917-0.77,5.404-2.008,7.458-3.712
	c2.054-1.704,3.594-3.675,4.622-5.918c1.587-3.502,1.541-6.441-0.14-8.823c-1.915-2.753-5.602-4.013-11.064-3.781
	C238.704,58.786,238.61,58.761,238.518,58.715z M226.263,93.03c-0.141,0.278-0.281,0.956-0.421,2.029l-0.069,0.352
	c0,0.793,0.023,1.54,0.069,2.238c0,0.189,0.023,0.421,0.07,0.701c0.046,0.465,0.07,0.724,0.07,0.77
	c0.094,0.654,0.071,1.213-0.07,1.682c-0.047,0.046-0.07,0.093-0.07,0.14h1.681h1.05h0.141c0.14,0,0.77,0.011,1.891,0.036
	c1.12,0.021,1.984,0.034,2.591,0.034h0.069c0.421,0,0.841-0.024,1.261-0.07c-0.046-0.094-0.046-0.186,0-0.282
	c0-0.092,0.07-0.208,0.21-0.347c0.046-0.049,0.116-0.143,0.209-0.283c0.187-0.186,0.444-0.396,0.771-0.628
	c0.606-0.562,1.261-1.075,1.961-1.541l0.63-0.491c-0.794-2.24-0.514-3.991,0.84-5.252l0.14-0.142c-1.307-0.184-2.24-0.255-2.8-0.208
	c-1.028,0.046-1.728,0.374-2.101,0.978c-0.42,0.704-0.444,1.893-0.07,3.574c0.28-0.188,0.536-0.352,0.771-0.492
	c0.28-0.186,0.501-0.127,0.665,0.176c0.163,0.306,0.081,0.525-0.245,0.665l-0.14,0.141c0.092,0.093,0.14,0.232,0.14,0.42
	c-0.048,0.325-0.234,0.464-0.561,0.418c-0.374-0.047-0.606-0.069-0.699-0.069c0,0.046-0.025,0.069-0.071,0.069h-0.07
	c-0.747,0.561-1.261,0.936-1.54,1.122c-1.401,0.933-2.661,1.354-3.782,1.259c-0.374-0.046-0.654-0.117-0.84-0.209
	c-0.328-0.234-0.444-0.515-0.351-0.84c0.046-0.188,0.163-0.374,0.351-0.561c0.14-0.139,0.35-0.303,0.629-0.491
	c0.887-0.605,1.681-1.002,2.381-1.191c0.653-0.139,1.471-0.209,2.452-0.209c-0.467-1.915-0.42-3.337,0.139-4.271
	c0.561-0.932,1.517-1.424,2.872-1.471c0.606-0.044,1.705,0.047,3.292,0.279c0.513,0.048,0.886,0.071,1.121,0.071h0.07
	c0.092,0,0.163-0.023,0.21-0.071v-0.208c-0.048-0.282-0.094-0.678-0.141-1.192l-0.279-1.471c-1.308,0.842-2.989,1.028-5.042,0.561
	c-0.28-0.094-0.725-0.349-1.331-0.77c-0.42-0.234-0.771-0.349-1.051-0.349c-0.374,0-0.934,0.233-1.681,0.699l-0.279,0.14
	l-0.07,0.139c0.046,0.096,0.07,0.188,0.07,0.282c0,0.233-0.118,0.398-0.351,0.49l-0.28,0.701c0.093-0.186,0.234-0.327,0.42-0.421
	c0.234-0.093,0.561-0.093,0.981,0c0.325,0.094,0.443,0.306,0.35,0.63c-0.047,0.094-0.094,0.166-0.14,0.211
	c-0.047,0.235-0.187,0.375-0.421,0.418l-0.49,0.071c-0.139,0.42-0.28,0.747-0.42,0.979c-0.188,0.282-0.42,0.328-0.7,0.142
	c-0.28-0.185-0.327-0.421-0.14-0.7c0.046-0.046,0.092-0.117,0.14-0.21c-1.4,0.233-2.896,0.419-4.481,0.561v0.56
	c0.093,0,0.186,0.023,0.28,0.069C226.378,92.541,226.448,92.748,226.263,93.03z M228.714,68.03c0.325,0,0.49,0.164,0.49,0.488
	c0,0.328,0.023,0.549,0.069,0.666c0.046,0.119,0.163,0.317,0.351,0.597l0.42,0.77c0.186,0.279,0.128,0.501-0.176,0.666
	c-0.303,0.163-0.524,0.082-0.664-0.246l-0.351-0.559c-0.14-0.188-0.245-0.339-0.315-0.458c-0.07-0.116-0.14-0.303-0.21-0.56
	c-0.07-0.255-0.104-0.548-0.104-0.876C228.224,68.193,228.386,68.03,228.714,68.03z M242.439,81.194
	c-1.075,1.868-2.147,3.175-3.221,3.92c-0.887,0.609-1.938,0.89-3.151,0.843c-0.047,0-1.098-0.164-3.151-0.491
	c-1.309-0.232-2.498-0.232-3.572,0c-0.234,0.049-0.538,0.188-0.91,0.419l0.42-0.067c0.654-0.048,1.19-0.071,1.61-0.071h0.42h0.209
	h0.07c0.094,0,0.164,0.023,0.21,0.071c0.187,0.139,0.304,0.349,0.351,0.628v0.561c0,0.047-0.023,0.093-0.07,0.139
	c0.606-0.326,1.144-0.489,1.61-0.489c0.513,0,1.027,0.186,1.541,0.561c0.513,0.326,0.887,0.514,1.122,0.561
	c2.24,0.559,3.944,0.163,5.111-1.19c0.981-1.073,1.634-2.826,1.961-5.254c0-0.043,0.023-0.092,0.07-0.139l-0.49-0.491
	c-0.093-0.044-0.164-0.14-0.209-0.28l-0.141,0.14C242.555,80.704,242.625,80.915,242.439,81.194z M228.714,99.052h0.209
	c0.84,0.092,1.866-0.257,3.081-1.05l0.63-0.491c-0.56,0-1.028,0.07-1.4,0.21c-0.607,0.14-1.331,0.489-2.171,1.05
	C228.923,98.864,228.806,98.957,228.714,99.052z M232.425,68.73c0.141,0.233,0.21,0.374,0.21,0.419
	c0.233,0.234,0.221,0.455-0.035,0.665c-0.258,0.212-0.479,0.176-0.666-0.104c-0.233-0.233-0.467-0.701-0.7-1.401l-0.071-0.279
	c-0.047-0.094-0.07-0.186-0.07-0.282c0-0.093,0.046-0.185,0.141-0.279c0.093-0.092,0.232-0.14,0.42-0.14
	c0.093,0,0.209,0.048,0.35,0.14l0.141,0.139l0.351,0.561C232.635,68.355,232.611,68.542,232.425,68.73z M241.739,101.013v-0.14
	c0-0.375,0.023-1.122,0.07-2.24c0-0.515,0.023-1.006,0.07-1.472c-0.14,0.094-0.279,0.14-0.42,0.14c-0.094,0-0.187-0.046-0.279-0.14
	c-0.467,0.326-1.145,0.864-2.032,1.611c-1.121,0.979-2.031,1.657-2.731,2.031l-0.21,0.14
	C237.093,100.943,238.938,100.964,241.739,101.013z M237.047,78.252c0.233-0.141,0.724-0.478,1.471-1.015
	c0.746-0.537,1.282-0.946,1.61-1.225l1.19-1.051c0.513-0.466,0.887-0.944,1.121-1.435c0.233-0.491,0.396-1.016,0.49-1.576
	c0.046-0.326,0.232-0.467,0.56-0.421c0.327,0.046,0.466,0.235,0.42,0.561c-0.094,0.655-0.293,1.272-0.595,1.855
	c-0.305,0.585-0.725,1.146-1.261,1.681c-0.538,0.538-0.98,0.943-1.33,1.225c-0.351,0.282-0.911,0.689-1.682,1.225
	c-0.77,0.538-1.249,0.877-1.436,1.017c-0.279,0.186-0.514,0.139-0.7-0.14C236.719,78.673,236.767,78.439,237.047,78.252z
	 M241.109,93.869c-0.608,0.094-1.028,0.188-1.261,0.28c-0.28,0.096-0.49-0.024-0.63-0.349v-0.209c-0.467,0.885-0.467,2.006,0,3.36
	c0.046-0.047,0.115-0.072,0.21-0.072c0.14-0.043,0.255-0.021,0.35,0.072c0.466-0.327,0.934-0.63,1.401-0.91
	c0.139-0.841,0.255-1.447,0.35-1.82c0-0.049,0.023-0.096,0.07-0.142h-0.141C241.318,94.08,241.202,94.009,241.109,93.869z
	 M251.053,91.419l0.07-0.07c0.14,0,0.256,0.046,0.351,0.139c0.279-0.652,0.536-1.562,0.77-2.73c0.42-1.68,0.7-3.314,0.841-4.903
	c0.14-1.82,0.07-3.195-0.21-4.13c-0.14-0.467-0.351-0.77-0.631-0.91c-0.233-0.188-0.537-0.212-0.91-0.071
	c-0.047,0.048-0.094,0.14-0.14,0.28c-0.094,0.326-0.165,0.77-0.21,1.331c-0.095,0.936-0.118,2.311-0.07,4.131
	c0.045,0.514,0.081,1.273,0.105,2.275c0.023,1.007,0.035,1.739,0.035,2.205C251.099,90.088,251.099,90.905,251.053,91.419z"/>
<path fill="#97BF0D" d="M349.395,37.684c-0.136-0.135-0.25-0.271-0.34-0.408c-0.229-0.409-0.229-0.793,0-1.158
	c0.316-0.498,0.998-0.863,2.042-1.089c0.909-0.227,1.771-0.295,2.588-0.205c0.455,0.046,0.794,0.136,1.023,0.272
	c0.408,0.273,0.589,0.612,0.544,1.021c-0.045,0.228-0.183,0.387-0.408,0.476c-0.093,0.047-0.206,0.069-0.341,0.069h-0.272
	c-0.182,0.045-1.135,0.476-2.859,1.293c-0.093,0.046-0.477,0.182-1.159,0.408c-0.318,0.092-0.522,0.206-0.613,0.342
	c-0.363,0.454-0.34,1.02,0.069,1.702c0.408,0.681,1.111,1.385,2.111,2.111c0.908,0.682,1.883,1.272,2.929,1.77
	c0.953,0.454,1.633,0.682,2.042,0.682c0.181,0,0.317,0.09,0.408,0.272c0.183-0.044,0.386-0.069,0.614-0.069
	c0.998-0.136,2.337-0.181,4.019-0.136c1.815,0.046,2.997,0.046,3.541,0c0.091,0,0.635,0.046,1.634,0.136
	c0.682,0.047,1.113,0.025,1.295-0.068c0.408-0.227,0.907-0.749,1.499-1.566c0.453-0.635,0.816-1.271,1.089-1.907h-0.41
	c-1.18,0-2.065-0.09-2.655-0.273c-0.726-0.181-1.136-0.5-1.226-0.953c-0.136-0.409,0.022-0.817,0.476-1.226
	c0.319-0.273,0.727-0.521,1.227-0.749c1.271-0.5,2.315-0.545,3.132-0.136c0.501,0.272,0.794,0.704,0.887,1.294
	c0.089,0.636-0.07,1.385-0.478,2.246c-0.272,0.727-0.681,1.477-1.227,2.249c-0.727,0.998-1.361,1.612-1.907,1.837
	c-0.363,0.184-0.954,0.25-1.771,0.206c-0.953-0.09-1.476-0.136-1.567-0.136c-0.499,0.046-1.679,0.046-3.541,0
	c-1.726-0.046-3.042,0-3.95,0.136c-2.815,0.271-4.677,1.203-5.584,2.792l0.476,0.681c1.59,2.68,2.452,5.438,2.588,8.275
	c0.136,2.838-0.59,5.574-2.178,8.206l2.178-0.954c0.909-0.454,1.543-0.771,1.909-0.952c2.087-1.045,3.45-2.135,4.084-3.271
	c0.319-0.589,0.773-1.044,1.363-1.361c0.726-0.409,1.408-0.454,2.042-0.136c0.182,0.092,0.342,0.25,0.478,0.476
	c0.091,0.182,0.159,0.409,0.204,0.682c0.136,0.454,0.227,0.977,0.273,1.567c0.045,0.681,0.022,1.225-0.067,1.634
	c-0.183,0.68-0.501,1.044-0.955,1.089c-0.59,0.047-1.225-0.272-1.906-0.952c-0.228-0.181-0.476-0.444-0.75-0.784
	c-0.272-0.341-0.455-0.533-0.544-0.579c-0.046-0.044-0.067-0.09-0.067-0.136c-0.774,0.909-2.021,1.771-3.747,2.587
	c-0.407,0.228-1,0.501-1.771,0.818l-1.906,0.953c-0.592,0.273-1.091,0.544-1.499,0.817c-0.182,0.092-0.342,0.092-0.478,0
	c-0.499,0.545-1.044,1.045-1.634,1.498c-3.178,2.635-7.083,3.907-11.715,3.815c-5.358-0.09-9.445-1.385-12.258-3.882
	c-2.634-2.224-3.95-5.177-3.95-8.854c0-1.453,0.227-2.928,0.681-4.426l-5.722-4.701c-0.271-0.226-0.307-0.464-0.103-0.714
	c0.206-0.249,0.42-0.283,0.648-0.103l5.448,4.496c0.41-1.09,0.909-2.178,1.499-3.27c-1.816-1.088-3.485-2.439-5.006-4.051
	c-1.522-1.612-2.576-3.28-3.167-5.006c-0.091-0.272,0.012-0.465,0.307-0.579c0.295-0.113,0.51-0.011,0.646,0.306
	c0.499,1.589,1.476,3.145,2.93,4.665c1.452,1.521,3.04,2.804,4.766,3.848c0.637-1.044,1.363-2.044,2.18-2.997
	c-0.183,0.045-0.34,0-0.478-0.136c-0.227-0.227-0.227-0.454,0-0.682c0.228-0.271,0.637-0.724,1.227-1.361l1.293-1.431
	c0.274-0.273,0.67-0.624,1.192-1.055c0.522-0.431,1.068-0.784,1.635-1.055c0.567-0.272,1.192-0.523,1.874-0.75
	c3.313-0.953,6.526-0.76,9.636,0.579c3.111,1.339,5.71,3.439,7.799,6.3c0.771-1.134,1.974-1.951,3.609-2.452
	c-0.318-0.09-0.658-0.227-1.021-0.409c-1.089-0.544-2.111-1.158-3.065-1.838c-1.135-0.862-1.93-1.68-2.383-2.451
	c-0.636-1.044-0.659-1.951-0.069-2.725C348.963,37.98,349.167,37.822,349.395,37.684z M335.91,41.771
	c0,0.181-0.091,0.317-0.272,0.408c-3.997,2.226-7.128,5.176-9.398,8.854l0.543,0.342c0.271,0.135,0.342,0.34,0.204,0.613
	c-0.136,0.272-0.34,0.339-0.612,0.203l-0.681-0.273c-0.59,1.136-1.09,2.271-1.499,3.407l0.817,0.612
	c0.272,0.182,0.317,0.409,0.137,0.682c-0.183,0.271-0.408,0.317-0.682,0.137l-0.543-0.409c-0.365,1.316-0.545,2.587-0.545,3.813
	c0,3.359,1.202,6.084,3.609,8.172c2.679,2.316,6.562,3.52,11.646,3.61c4.45,0.092,8.173-1.089,11.17-3.541
	c1.86-1.545,3.155-3.395,3.881-5.552c0.727-2.156,0.909-4.313,0.545-6.47c-0.364-2.156-1.157-4.256-2.384-6.299
	c-0.136-0.273-0.295-0.546-0.476-0.818c-0.046-0.045-0.07-0.089-0.07-0.136c-1.815-2.678-4.096-4.709-6.843-6.095
	C341.708,41.646,338.86,41.226,335.91,41.771z M333.05,42.657c-1.091,0.545-2.203,1.431-3.337,2.656
	C330.755,44.359,331.868,43.473,333.05,42.657z M331.142,64.858c0.273,0.318,0.794,0.773,1.566,1.363
	c0.274,0.227,0.307,0.466,0.103,0.714c-0.204,0.25-0.421,0.284-0.646,0.103c-0.817-0.682-1.386-1.182-1.703-1.499
	c-0.229-0.273-0.217-0.511,0.033-0.715C330.744,64.62,330.961,64.632,331.142,64.858z M339.86,73.305
	c0.227,0.772,0.499,2.611,0.817,5.516c0.136,1.362,0.226,2.498,0.272,3.405v0.75c0.045,0,0.091,0.022,0.136,0.067
	c0.274,0.136,0.432,0.318,0.478,0.545c0,0.227-0.068,0.431-0.204,0.612c-0.183,0.273-0.5,0.545-0.955,0.818
	c-0.408,0.226-0.909,0.453-1.497,0.679c-1.271,0.545-2.384,0.841-3.337,0.887c-0.591,0.044-1.045,0-1.362-0.137
	c-0.545-0.228-0.772-0.612-0.681-1.158c0.091-0.681,0.522-1.136,1.294-1.362c0.5-0.135,1.203-0.204,2.111-0.204
	c0.136,0,0.455,0.01,0.954,0.035c0.499,0.022,0.862,0.034,1.091,0.034c0.317,0,0.566-0.023,0.75-0.068h-0.206
	c-0.318,0-0.476-0.16-0.476-0.477c0-0.316,0.158-0.478,0.476-0.478h0.478v-0.544c-0.046-0.861-0.136-1.952-0.271-3.269
	c-0.319-2.86-0.592-4.654-0.818-5.38c-0.093-0.316,0.022-0.521,0.34-0.612C339.563,72.873,339.769,72.987,339.86,73.305z
	 M338.701,84.746c-0.181,0-0.476-0.012-0.885-0.035c-0.408-0.022-0.726-0.033-0.953-0.033c-0.772,0-1.351,0.056-1.736,0.169
	c-0.386,0.113-0.603,0.308-0.648,0.581c0,0.089,0.023,0.135,0.068,0.135c0.182,0.091,0.499,0.113,0.955,0.068
	c0.862-0.046,1.883-0.318,3.063-0.818L338.701,84.746z M336.045,63.77l0.342,0.817c0.136,0.319,0.056,0.535-0.239,0.646
	c-0.297,0.115-0.489,0.035-0.579-0.238l-0.341-0.816c-0.136-0.317-0.056-0.533,0.239-0.648
	C335.762,63.417,335.955,63.497,336.045,63.77z M348.237,57.436c0,0.5,0.044,1.204,0.136,2.111c0.044,1,0.091,1.703,0.136,2.111
	c0.045,1.68-0.272,3.111-0.953,4.291c-0.137,0.317-0.352,0.396-0.646,0.238c-0.297-0.159-0.354-0.374-0.171-0.647
	c0.545-1.044,0.818-2.338,0.818-3.882c-0.047-0.363-0.091-1.045-0.137-2.044c-0.091-0.908-0.136-1.634-0.136-2.178
	c0-0.317,0.158-0.478,0.476-0.478S348.237,57.119,348.237,57.436z M353.821,35.779c-0.091,0-0.181-0.024-0.272-0.07
	c-0.681-0.044-1.431,0.024-2.248,0.205c-0.772,0.229-1.248,0.478-1.429,0.75c-0.047,0.045-0.047,0.091,0,0.135
	c0.089,0.138,0.295,0.296,0.612,0.478c0.182-0.045,0.341-0.092,0.477-0.137C352.687,36.277,353.64,35.823,353.821,35.779z
	 M364.31,60.228c-0.365-0.136-0.761-0.09-1.192,0.137c-0.433,0.227-0.761,0.544-0.988,0.953c-0.044,0.136-0.113,0.273-0.204,0.409
	c0.091,0.044,0.16,0.09,0.204,0.136c0.091,0.092,0.273,0.295,0.545,0.613c0.272,0.318,0.499,0.567,0.681,0.749
	c0.499,0.455,0.885,0.682,1.158,0.682c0.044-0.045,0.091-0.159,0.136-0.342c0.091-0.316,0.113-0.77,0.068-1.361
	c-0.044-0.499-0.113-0.976-0.204-1.431c-0.045-0.181-0.113-0.34-0.204-0.476V60.228z M367.443,40.136
	c0.089,0.137,0.271,0.25,0.544,0.341c0.545,0.137,1.362,0.205,2.451,0.205h0.818c0.091-0.363,0.113-0.682,0.068-0.955
	c-0.045-0.271-0.181-0.452-0.408-0.544c-0.545-0.317-1.295-0.273-2.248,0.136c-0.455,0.181-0.794,0.363-1.021,0.545L367.443,40.136z
	"/>
<path fill="#B1B3B4" d="M608.521,100.355l0.43,0.214c0.287,0.19,0.334,0.43,0.143,0.717c-0.191,0.284-0.428,0.333-0.715,0.142
	c-0.525-0.335-1.029-0.599-1.504-0.789l-2.51,0.647c-1.146,0.237-2.031,0.404-2.65,0.501c-0.432,0.047-0.766,0.07-1.004,0.07
	c-0.145,0-0.287-0.023-0.43-0.07c-0.191-0.048-0.336-0.144-0.43-0.287c-0.191-0.288-0.24-0.574-0.145-0.861
	c0.047-0.237,0.217-0.453,0.502-0.645c0.334-0.237,0.883-0.404,1.648-0.501c1.145-0.19,2.34-0.238,3.584-0.145
	c0.523,0.048,1.025,0.145,1.504,0.288l1.721-0.357c0.334-0.049,0.525,0.094,0.572,0.428c0.047,0.336-0.098,0.527-0.43,0.572
	C608.712,100.28,608.616,100.307,608.521,100.355z M600.782,100.855c0.189,0,0.453-0.026,0.789-0.073
	c0.57-0.097,1.336-0.237,2.291-0.428c-0.717,0-1.338,0.047-1.861,0.142C601.427,100.591,601.019,100.712,600.782,100.855z
	 M615.185,95.982l0.432,0.646c0.189,0.286,0.143,0.526-0.145,0.715c-0.287,0.192-0.525,0.144-0.715-0.142l-0.719-1.075
	c-0.047-0.047-1.48-0.74-4.299-2.079c-2.15-1.05-3.631-2.1-4.443-3.152c-0.24-0.334-0.359-0.742-0.359-1.221
	c0-0.522,0.189-0.932,0.574-1.216c0.764-0.621,1.742-0.597,2.938,0.073c0.861,0.524,1.863,1.385,3.01,2.577
	c1.1,1.195,2.197,2.628,3.299,4.3l0.213,0.071C615.161,95.623,615.231,95.791,615.185,95.982z M612.749,94.333
	c-0.672-0.906-1.361-1.743-2.078-2.507c-1.051-1.146-1.959-1.959-2.725-2.437c-0.812-0.478-1.434-0.548-1.861-0.215
	c-0.098,0.095-0.143,0.263-0.143,0.5c0,0.243,0.072,0.457,0.213,0.647c0.719,0.908,2.055,1.839,4.014,2.794L612.749,94.333z
	 M631.595,97.201c-1.051-0.287-1.77-0.597-2.15-0.931c-0.287-0.238-0.428-0.503-0.428-0.79c0.047-0.333,0.236-0.562,0.57-0.679
	c0.336-0.12,0.693-0.11,1.076,0.034c-0.334-2.817-0.098-4.894,0.717-6.234c0.238-0.429,0.549-0.763,0.932-1
	c-0.814-0.049-1.504,0-2.078,0.143c-1.146,0.286-1.863,1.075-2.148,2.363c-0.145,0.766-0.145,2.007,0,3.727
	c0.094,0.765,0.117,1.29,0.07,1.576c0,0.24-0.023,0.457-0.07,0.646c-0.051,0.286-0.17,0.479-0.361,0.574
	c-0.238,0.142-0.477,0.142-0.717,0c-0.143-0.048-0.26-0.142-0.357-0.288c-0.049-0.095-0.119-0.19-0.213-0.286l-0.072-0.072
	c-0.479-0.334-0.98-0.596-1.506-0.788c-0.574-0.19-1.051-0.24-1.434-0.143l0.432,0.214c0.047,0,0.117,0,0.215,0
	c0.047,0.047,0.096,0.073,0.143,0.073h0.07c0.336,0,0.502,0.167,0.502,0.501c0,0.336-0.166,0.501-0.502,0.501h-0.07
	c-0.096,0-0.215-0.022-0.357-0.07h-0.072c-0.096-0.047-0.191-0.073-0.287-0.073c-0.287-0.095-0.525-0.214-0.717-0.357
	c-0.145-0.048-0.264-0.117-0.357-0.216c-0.193-0.188-0.287-0.38-0.287-0.571c0-0.239,0.117-0.454,0.357-0.645
	c0.143-0.095,0.334-0.19,0.574-0.287c0.574-0.192,1.264-0.144,2.076,0.144c0.672,0.192,1.268,0.478,1.793,0.859
	c0.096,0.047,0.168,0.143,0.215,0.286c0.049-0.239,0.023-0.738-0.07-1.505c-0.191-1.765-0.17-3.104,0.07-4.013
	c0.334-1.669,1.291-2.722,2.867-3.153c1.766-0.476,4.371-0.095,7.811,1.147c0.334,0.144,0.453,0.358,0.357,0.647l1.004,0.643
	c0.238,0.142,0.453,0.239,0.645,0.288v-0.146c-0.096-0.333-0.238-0.762-0.428-1.289c-0.385-1.004-0.959-2.173-1.721-3.512
	c-0.717-1.289-1.434-2.46-2.15-3.511c-0.336-0.478-0.646-0.858-0.932-1.147c-0.24-0.286-0.43-0.454-0.574-0.5
	c-2.387,2.818-5.256,4.562-8.598,5.232c-4.299,0.858-7.621,0.358-9.961-1.505c-2.102-1.625-3.105-3.965-3.01-7.023
	c0.096-2.674,1.049-5.194,2.865-7.561c1.816-2.363,4.18-3.882,7.096-4.55c-0.861-2.34-0.766-5.16,0.287-8.455
	c0.094-0.334,0.309-0.454,0.643-0.357c0.336,0.094,0.455,0.311,0.359,0.643c-1.051,3.153-1.172,5.803-0.359,7.953
	c0.191-0.047,0.359-0.071,0.504-0.071c0.475-2.723,1.648-5.708,3.51-8.956c0.145-0.333,0.369-0.417,0.68-0.253
	c0.312,0.169,0.371,0.396,0.182,0.684c-1.863,3.295-3.012,6.303-3.441,9.028c-0.047,0.335-0.238,0.479-0.572,0.429
	c-0.096,0.049-0.168,0.072-0.215,0.072h-0.215c0,0.239-0.096,0.406-0.287,0.502c-0.287,0.144-0.502,0.072-0.645-0.214l-0.072-0.073
	c-2.723,0.574-4.934,1.959-6.627,4.156c-1.697,2.198-2.592,4.541-2.689,7.023c-0.094,2.722,0.789,4.801,2.652,6.234
	c2.102,1.673,5.16,2.101,9.172,1.289c2.963-0.573,5.52-2.075,7.668-4.515c2.15-2.434,3.416-5.038,3.799-7.811
	c0.43-2.771-0.145-4.895-1.721-6.376c-1.816-1.721-4.684-2.244-8.598-1.579c-0.336,0.05-0.527-0.094-0.574-0.428
	s0.094-0.526,0.43-0.573c4.252-0.719,7.402-0.095,9.459,1.863c1.814,1.721,2.482,4.132,2.008,7.238
	c-0.193,1.385-0.6,2.747-1.221,4.083c0.766-1.242,1.648-2.244,2.652-3.009c1.957-1.432,3.916-1.601,5.877-0.5
	c0.189,0.095,0.332,0.119,0.428,0.069l0.287-0.142c0.145-0.094,0.287-0.166,0.43-0.215c0.189,0,0.383,0.073,0.574,0.215
	c0.189,0.192,0.43,0.574,0.717,1.148c0.43,0.956,0.549,1.804,0.357,2.542c-0.191,0.742-0.598,1.28-1.217,1.612
	c-0.67,0.335-1.277,0.24-1.828-0.286c-0.549-0.525-0.824-1.36-0.824-2.508c0-0.334,0.166-0.502,0.502-0.502
	c0.334,0,0.502,0.168,0.502,0.502c0,0.861,0.166,1.458,0.5,1.792c0.193,0.19,0.432,0.214,0.717,0.07
	c0.336-0.144,0.562-0.454,0.682-0.931c0.119-0.477,0.035-1.099-0.25-1.863l-0.432-0.646c-0.143,0.098-0.285,0.17-0.43,0.217
	c-0.334,0.095-0.715,0.025-1.146-0.217c-1.623-0.858-3.248-0.715-4.871,0.432c-1.436,1.051-2.51,2.554-3.227,4.513
	c-0.143,0.335-0.369,0.441-0.68,0.323c-0.311-0.12-0.418-0.323-0.322-0.609l0.285-0.716c-0.332,0.621-0.715,1.216-1.146,1.79
	c0.191,0.144,0.406,0.357,0.646,0.645c0.332,0.287,0.668,0.694,1.004,1.218c0.762,1.004,1.504,2.199,2.221,3.584
	c0.764,1.337,1.361,2.554,1.793,3.654c0.236,0.574,0.379,1.053,0.428,1.434c0.096,0.527,0.07,0.931-0.07,1.218
	c-0.145,0.19-0.357,0.286-0.646,0.286c-0.096,0-0.238-0.046-0.43-0.144c-0.24-0.045-0.527-0.189-0.859-0.429
	c-0.096-0.047-0.527-0.286-1.291-0.717c-1.432-0.858-2.604-1.264-3.512-1.216c-0.764,0-1.336,0.334-1.719,1.002
	c-0.764,1.292-0.908,3.415-0.43,6.377c0.238,0.242,0.43,0.527,0.574,0.86c0.238,0.097,0.332,0.264,0.285,0.503
	c0,0.095-0.023,0.167-0.07,0.214c0,0.192-0.121,0.334-0.359,0.429C631.954,97.584,631.737,97.486,631.595,97.201z M648.792,99.565
	c1.385-0.143,2.912-0.216,4.586-0.216c1.1,0,2.008,0.048,2.723,0.145c0.43,0.097,0.789,0.19,1.076,0.287
	c0.334,0.095,0.598,0.264,0.789,0.5c0.143,0.242,0.166,0.502,0.07,0.79c-0.049,0.19-0.143,0.405-0.287,0.644
	c-0.238,0.287-0.479,0.527-0.715,0.718c-1.961,1.385-3.895,2.338-5.805,2.866c-1.912,0.527-4.156,0.789-6.736,0.789
	c-0.906,0-2.938,0.284-6.092,0.858c-2.627,0.477-4.707,0.6-6.234,0.358c-0.859-0.144-1.432-0.5-1.719-1.075
	c-0.145-0.335-0.215-0.836-0.215-1.504c0-0.527-0.047-0.861-0.145-1.004c-0.094-0.19-0.357-0.311-0.787-0.357
	c-0.621-0.047-1.721-0.023-3.297,0.072c-2.197,0.047-3.629,0.095-4.301,0.142c-1.672,0-3.057-0.069-4.154-0.214
	c-1.434-0.19-2.486-0.524-3.154-1.003c-0.574-0.479-0.885-0.932-0.932-1.361c-0.094-0.477,0.119-0.884,0.646-1.218
	c0.619-0.432,1.768-0.741,3.439-0.931c1.336-0.19,2.771-0.29,4.299-0.29c0.955,0,1.744,0.049,2.365,0.146
	c1.1-0.334,2.15-0.264,3.152,0.214c0.287,0.144,0.908,0.527,1.863,1.148c0.812,0.523,1.529,0.908,2.15,1.144
	c0.621,0.241,2.078,0.241,4.371,0c0.43-0.047,0.955-0.153,1.576-0.321c0.621-0.167,1.146-0.322,1.576-0.466
	c0.43-0.145,1.1-0.381,2.006-0.717l1.936-0.716c3.344-1.146,5.709-1.505,7.094-1.075c0.191,0.095,0.311,0.215,0.359,0.358
	c0.094,0.24,0.047,0.431-0.143,0.574c-0.096,0.095-0.217,0.168-0.359,0.214l-0.357,0.144
	C649.341,99.255,649.126,99.374,648.792,99.565z M625.216,99.494c-0.143,0.334-0.357,0.456-0.643,0.357
	c-0.098-0.047-0.191-0.07-0.289-0.07c-0.525,0.144-1.074,0.406-1.648,0.788c-0.285,0.19-0.523,0.144-0.715-0.144
	s-0.143-0.524,0.145-0.717l0.213-0.143h-0.43c-1.48,0-2.891,0.072-4.227,0.215c-1.48,0.19-2.461,0.478-2.939,0.858
	c-0.189,0.095-0.287,0.19-0.287,0.287c0.047,0.144,0.238,0.334,0.574,0.574c0.525,0.431,1.432,0.717,2.725,0.86
	c1.002,0.143,2.338,0.216,4.01,0.216c0.672-0.048,2.08-0.098,4.229-0.145c1.625-0.097,2.748-0.12,3.369-0.072
	c0.859,0.047,1.434,0.358,1.719,0.931c0.145,0.286,0.215,0.764,0.215,1.434c0,0.526,0.047,0.883,0.145,1.075
	c0.145,0.237,0.453,0.404,0.932,0.503c1.434,0.236,3.414,0.118,5.947-0.36c3.059-0.573,5.135-0.861,6.234-0.861
	c2.482,0,4.633-0.248,6.449-0.751c1.814-0.502,3.656-1.423,5.518-2.76c0.143-0.095,0.311-0.261,0.5-0.5
	c0.049-0.094,0.098-0.168,0.145-0.214c-0.047-0.048-0.145-0.096-0.287-0.143c-0.238-0.097-0.525-0.167-0.859-0.215
	c-0.67-0.095-1.553-0.142-2.652-0.142c-1.766,0-3.271,0.07-4.514,0.214c-0.812,0.096-1.432,0.261-1.863,0.501l-0.07,0.073
	c-0.049,0.044-0.096,0.069-0.145,0.069c-0.096,0.048-0.191,0.074-0.285,0.074c-0.145-0.049-0.24-0.121-0.287-0.216
	c-0.096-0.047-0.145-0.12-0.145-0.214v-0.216v-0.07v-0.072c0.049-0.286,0.24-0.548,0.574-0.789c0.191-0.19,0.477-0.381,0.859-0.572
	c0.191-0.096,0.43-0.24,0.715-0.43c-1.098,0.047-2.768,0.478-5.014,1.289c-0.334,0.097-0.955,0.312-1.863,0.645l-2.078,0.789
	c-0.43,0.142-0.979,0.296-1.648,0.466c-0.668,0.166-1.217,0.274-1.646,0.323c-2.438,0.238-4.039,0.238-4.803,0
	c-0.764-0.287-1.578-0.717-2.438-1.291c-0.906-0.62-1.48-0.977-1.719-1.075C626.364,99.565,625.79,99.447,625.216,99.494z
	 M619.628,76.205c0.332,0,0.502,0.168,0.502,0.5c0,0.335-0.17,0.501-0.502,0.501c-0.336,0-0.502-0.166-0.502-0.501
	C619.126,76.373,619.292,76.205,619.628,76.205z M624.786,74.199l0.502,1.075c0.145,0.287,0.072,0.501-0.215,0.645
	s-0.5,0.072-0.645-0.214l-0.502-1.075c-0.143-0.289-0.07-0.504,0.215-0.646C624.429,73.841,624.644,73.911,624.786,74.199z
	 M627.296,80.289c0.717-0.62,1.312-1.384,1.791-2.294c0.477-0.905,0.799-1.658,0.967-2.257c0.168-0.596,0.406-1.586,0.717-2.971
	s0.512-2.317,0.609-2.797c0.096-0.287,0.297-0.393,0.609-0.323c0.309,0.074,0.441,0.276,0.395,0.61
	c-0.098,0.336-0.301,1.218-0.611,2.653c-0.309,1.431-0.561,2.483-0.752,3.151c-0.191,0.669-0.561,1.505-1.109,2.507
	c-0.551,1.004-1.184,1.816-1.898,2.437c-0.289,0.24-0.539,0.227-0.754-0.037C627.044,80.708,627.056,80.479,627.296,80.289z
	 M647.718,93.546c-0.096-0.047-0.168-0.097-0.215-0.144c-0.191-0.333-0.143-0.574,0.145-0.716c0.238-0.144,0.475-0.262,0.715-0.358
	c1.004-1.529,2.221-2.653,3.656-3.368c0.332-0.142,0.645-0.261,0.93-0.359c0.334-0.045,0.621,0,0.861,0.142
	c0.285,0.242,0.332,0.574,0.143,1.006c-0.096,0.239-0.311,0.502-0.646,0.789c-0.334,0.285-0.703,0.571-1.109,0.858
	s-0.705,0.478-0.896,0.573l-1.217,0.574c-0.623,0.335-0.957,0.502-1.002,0.502c-0.146,0.287-0.289,0.548-0.432,0.788
	c-0.143,0.287-0.357,0.359-0.645,0.214C647.813,93.953,647.718,93.786,647.718,93.546z M652.663,89.749
	c-0.098,0.048-0.17,0.095-0.217,0.142c-0.621,0.287-1.266,0.742-1.934,1.362c0.859-0.43,1.553-0.908,2.078-1.432L652.663,89.749z"/>
<g>
	<path fill="#E2001A" d="M164.204,112.016c0,13.974,2.14,19.056,10.096,19.056c4.681,0,6.151-0.334,6.151-0.334v-17.919h-5.015
		c0,0-0.201-1.204-0.201-2.742c0-0.869,0.067-1.738,0.201-2.674h11.1v28.15c0,0-5.416,0.936-12.236,0.936
		c-12.771,0-16.248-7.355-16.248-24.472v-2.675c0-15.446,4.748-24.205,16.248-24.205c8.024,0,10.899,3.61,10.899,3.61
		c-1.137,2.942-3.276,4.881-3.276,4.881s-2.474-2.942-7.623-2.942c-6.687,0-10.096,6.152-10.096,18.655V112.016z"/>
	<path fill="#E2001A" d="M206.728,102.454c0,0,0.267,1.137,0.267,2.608s-0.267,2.675-0.267,2.675s-1.07-0.201-2.875-0.201
		c-1.337,0-3.41,0.134-3.41,0.134v28.417c-1.003,0.201-1.873,0.268-2.742,0.268c-1.738,0-3.009-0.268-3.009-0.268v-33.231
		c0,0,3.611-0.668,7.556-0.668C204.387,102.187,206.728,102.454,206.728,102.454z"/>
	<path fill="#E2001A" d="M231.198,127.127c0,7.957-3.544,9.628-10.163,9.628c-6.62,0-10.03-1.671-10.03-9.562v-24.539
		c0.936-0.201,2.006-0.268,2.808-0.268c1.739,0,2.942,0.268,2.942,0.268v25.141c0,3.41,1.471,3.878,4.279,3.878
		c2.875,0,4.413-0.468,4.413-3.878v-25.141c0.87-0.201,1.739-0.268,2.608-0.268c1.738,0,3.143,0.268,3.143,0.268V127.127z"/>
	<path fill="#E2001A" d="M244.703,136.087c-1.003,0.201-1.873,0.268-2.742,0.268c-1.738,0-3.009-0.268-3.009-0.268v-33.231
		c0,0,4.614-0.668,9.428-0.668c8.492,0,10.699,4.279,10.699,12.236v21.664c0,0-1.338,0.268-3.076,0.268
		c-0.869,0-1.672-0.067-2.675-0.268v-22.333c0-3.745-0.869-6.218-4.948-6.218c-0.936,0-3.677,0.134-3.677,0.134V136.087z"/>
	<path fill="#E2001A" d="M265.162,118.101c0-10.564,4.212-15.914,12.169-15.914c1.872,0,3.812,0.2,3.812,0.2V85.805
		c0.936-0.201,1.805-0.268,2.674-0.268c1.739,0,3.076,0.268,3.076,0.268v50.014c0,0-4.881,0.602-10.23,0.602
		c-7.89,0-11.5-3.812-11.5-16.983V118.101z M271.179,119.438c0,9.16,1.003,11.835,5.482,11.835c1.872,0,4.48-0.401,4.48-0.401
		v-23.135c0,0-1.939-0.201-3.812-0.201c-4.547,0-6.151,3.343-6.151,10.564V119.438z"/>
	<path fill="#E2001A" d="M309.156,104.527c0,0-0.803,2.675-2.541,4.547c0,0-0.869-1.939-4.413-1.939
		c-2.809,0-3.544,2.14-3.544,4.547c0,3.543,0.735,4.413,3.945,4.747c5.349,0.535,8.291,2.608,8.291,9.695
		c0,7.489-3.678,10.431-10.698,10.431c-5.282,0-7.154-2.742-7.154-2.742s0.535-2.674,2.541-4.547c0,0,1.404,2.34,4.613,2.34
		c4.48,0,5.148-2.207,5.148-5.015c0-4.146-1.672-4.814-5.215-5.349c-4.882-0.735-6.954-2.942-6.954-9.161
		c0-7.288,3.276-9.896,9.026-9.896C307.016,102.187,309.156,104.527,309.156,104.527z"/>
	<path fill="#E2001A" d="M321.39,120.441c0,7.756,1.404,10.631,5.282,10.631c1.873,0,3.945-0.268,3.945-0.268
		c0,0.067,0.2,1.003,0.2,2.541c0,1.471-0.2,2.541-0.2,2.541s-2.206,0.535-4.279,0.535c-7.288,0-10.898-4.814-10.898-15.98v-1.337
		c0-9.896,1.671-16.917,10.229-16.917c3.21,0,4.948,0.401,4.948,0.401s0.2,1.07,0.2,2.474c0,1.538-0.2,2.875-0.2,2.875
		s-2.741-0.401-4.613-0.401c-3.879,0-4.614,5.015-4.614,11.567V120.441z"/>
	<path fill="#E2001A" d="M340.646,136.087c-1.003,0.201-1.872,0.268-2.741,0.268c-1.738,0-3.009-0.268-3.009-0.268V85.805
		c0,0,1.337-0.268,3.143-0.268c1.738,0,2.607,0.268,2.607,0.268v16.649c0,0,1.806-0.267,3.611-0.267
		c6.819,0,10.765,2.474,10.765,11.835v22.065c0,0-1.271,0.268-3.009,0.268c-0.869,0-1.672-0.067-2.741-0.268v-22.065
		c0-4.079-0.803-6.486-5.015-6.486c-0.869,0-3.611,0.134-3.611,0.134V136.087z"/>
	<path fill="#E2001A" d="M382.635,127.127c0,7.957-3.544,9.628-10.164,9.628c-6.619,0-10.029-1.671-10.029-9.562v-24.539
		c0.937-0.201,2.006-0.268,2.809-0.268c1.738,0,2.941,0.268,2.941,0.268v25.141c0,3.41,1.472,3.878,4.279,3.878
		c2.875,0,4.413-0.468,4.413-3.878v-25.141c0.869-0.201,1.738-0.268,2.608-0.268c1.738,0,3.143,0.268,3.143,0.268V127.127z"/>
	<path fill="#E2001A" d="M396.273,136.087c0,0-1.137,0.268-2.808,0.268c-1.806,0-3.076-0.268-3.076-0.268V87.343l5.884-1.873
		V136.087z"/>
	<path fill="#E2001A" d="M402.757,118.435c0-11.167,4.547-16.382,11.835-16.382c6.754,0,10.9,4.212,10.9,14.175v4.413h-16.917
		c0,7.957,2.741,10.698,7.288,10.698c5.148,0,7.221-2.674,7.221-2.674c1.203,2.474,1.271,5.215,1.271,5.215
		s-2.475,2.608-8.493,2.608c-9.228,0-13.105-5.483-13.105-16.716V118.435z M408.642,115.626h10.965
		c0.335-5.55-1.137-8.291-5.015-8.291C410.782,107.335,408.642,110.21,408.642,115.626z"/>
	<path fill="#F29400" d="M464.805,88.146c0,0-0.734,2.808-3.275,5.215c0,0-2.273-2.541-7.021-2.541
		c-4.746,0-5.951,2.742-5.951,8.358c0,13.707,17.52,2.474,17.52,23.068c0,10.431-4.748,14.576-13.506,14.576
		c-8.225,0-10.699-3.543-10.699-3.543s1.137-3.41,3.41-5.015c0,0,2.141,2.809,7.289,2.809c5.482,0,7.287-3.076,7.287-9.027
		c0-14.442-17.518-3.276-17.518-22.734c0-10.029,4.68-14.175,12.168-14.175C462.531,85.137,464.805,88.146,464.805,88.146z"/>
	<path fill="#F29400" d="M477.307,120.441c0,7.756,1.404,10.631,5.283,10.631c1.871,0,3.945-0.268,3.945-0.268
		c0,0.067,0.199,1.003,0.199,2.541c0,1.471-0.199,2.541-0.199,2.541s-2.207,0.535-4.279,0.535c-7.289,0-10.898-4.814-10.898-15.98
		v-1.337c0-9.896,1.67-16.917,10.229-16.917c3.211,0,4.949,0.401,4.949,0.401s0.199,1.07,0.199,2.474
		c0,1.538-0.199,2.875-0.199,2.875s-2.742-0.401-4.613-0.401c-3.879,0-4.615,5.015-4.615,11.567V120.441z"/>
	<path fill="#F29400" d="M496.562,136.087c-1.002,0.201-1.871,0.268-2.74,0.268c-1.738,0-3.01-0.268-3.01-0.268V85.805
		c0,0,1.338-0.268,3.143-0.268c1.738,0,2.607,0.268,2.607,0.268v16.649c0,0,1.807-0.267,3.611-0.267
		c6.82,0,10.766,2.474,10.766,11.835v22.065c0,0-1.271,0.268-3.01,0.268c-0.869,0-1.672-0.067-2.74-0.268v-22.065
		c0-4.079-0.803-6.486-5.016-6.486c-0.869,0-3.611,0.134-3.611,0.134V136.087z"/>
	<path fill="#F29400" d="M530.395,102.454c0,0,0.268,1.137,0.268,2.608s-0.268,2.675-0.268,2.675s-1.07-0.201-2.875-0.201
		c-1.338,0-3.41,0.134-3.41,0.134v28.417c-1.004,0.201-1.873,0.268-2.742,0.268c-1.738,0-3.008-0.268-3.008-0.268v-33.231
		c0,0,3.609-0.668,7.555-0.668C528.055,102.187,530.395,102.454,530.395,102.454z"/>
	<path fill="#F29400" d="M532.668,127.127c0-6.419,2.539-10.23,9.428-10.431l5.08-0.134v-5.082c0-2.675-1.137-4.079-3.943-4.079
		c-4.08,0-6.02,1.671-6.02,1.671s-2.072-1.805-3.275-4.547c0,0,3.01-2.34,9.295-2.34c6.018,0,9.695,2.273,9.695,8.959v24.606
		c0,0-5.484,0.803-11.436,0.803C535.141,136.555,532.668,133.479,532.668,127.127z M547.176,131.339v-9.896l-4.412,0.134
		c-3.879,0.133-4.547,1.805-4.547,5.549c0,2.942,1.004,4.748,3.945,4.748C544.637,131.875,547.176,131.339,547.176,131.339z"/>
	<path fill="#F29400" d="M582.078,119.438c0,10.965-3.275,17.184-12.838,17.184c-5.348,0-8.893-0.735-8.893-0.735V85.805
		c0,0,1.004-0.268,2.943-0.268c1.738,0,2.807,0.268,2.807,0.268v16.783c0,0,2.541-0.401,4.414-0.401
		c8.023,0,11.566,3.076,11.566,15.914V119.438z M576.129,118.101c0-8.826-0.67-10.765-5.617-10.765
		c-1.873,0-4.414,0.334-4.414,0.334v23.536c0,0,1.271,0.401,3.143,0.401c5.885,0,6.889-4.279,6.889-12.169V118.101z"/>
	<path fill="#F29400" d="M586.623,118.435c0-11.167,4.547-16.382,11.834-16.382c6.754,0,10.9,4.212,10.9,14.175v4.413h-16.918
		c0,7.957,2.742,10.698,7.289,10.698c5.148,0,7.221-2.674,7.221-2.674c1.203,2.474,1.271,5.215,1.271,5.215
		s-2.475,2.608-8.492,2.608c-9.229,0-13.105-5.483-13.105-16.716V118.435z M592.508,115.626h10.965
		c0.334-5.55-1.137-8.291-5.016-8.291C594.646,107.335,592.508,110.21,592.508,115.626z"/>
	<path fill="#F29400" d="M627.275,102.454c0,0,0.268,1.137,0.268,2.608s-0.268,2.675-0.268,2.675s-1.07-0.201-2.875-0.201
		c-1.338,0-3.41,0.134-3.41,0.134v28.417c-1.004,0.201-1.873,0.268-2.742,0.268c-1.738,0-3.008-0.268-3.008-0.268v-33.231
		c0,0,3.609-0.668,7.555-0.668C624.936,102.187,627.275,102.454,627.275,102.454z"/>
	<path fill="#F29400" d="M629.883,118.301c0-10.698,4.078-16.114,12.102-16.114c5.15,0,9.629,0.668,9.629,0.668v32.964
		c0,12.036-2.941,15.379-10.965,15.379c-6.82,0-8.826-2.942-8.826-2.942s0.803-2.474,2.875-4.346c0,0,2.406,2.273,5.951,2.273
		c4.145,0,5.215-2.273,5.215-10.565c0,0-2.006,0.602-4.547,0.602c-8.023,0-11.434-3.276-11.434-16.583V118.301z M635.9,119.638
		c0,9.228,0.869,11.434,5.416,11.434c1.939,0,4.547-0.468,4.547-0.468v-23.068c0,0-1.939-0.201-3.879-0.201
		c-4.545,0-6.084,3.677-6.084,10.966V119.638z"/>
</g>
</svg>
